<svg width="500" height="500" viewBox="0 0 500 500" fill="none" xmlns="http://www.w3.org/2000/svg">
<path d="M363.333 43.0209H136.666C122.865 43.0594 109.64 48.559 99.8804 58.3182C90.1212 68.0774 84.6215 81.3027 84.583 95.1042V404.896C84.6215 418.697 90.1212 431.923 99.8804 441.682C109.64 451.441 122.865 456.941 136.666 456.979H363.333C377.146 456.979 390.394 451.492 400.162 441.724C409.929 431.957 415.416 418.709 415.416 404.896V95.1042C415.416 81.2908 409.929 68.0432 400.162 58.2757C390.394 48.5082 377.146 43.0209 363.333 43.0209ZM394.583 404.896C394.583 413.184 391.291 421.132 385.43 426.993C379.57 432.853 371.621 436.146 363.333 436.146H136.666C128.378 436.146 120.43 432.853 114.569 426.993C108.709 421.132 105.416 413.184 105.416 404.896V135.521H394.583V404.896Z" fill="black"/>
<path d="M157.271 198.042C154.508 198.042 151.859 196.944 149.905 194.991C147.952 193.037 146.854 190.388 146.854 187.625C146.854 184.862 147.952 182.213 149.905 180.259C151.859 178.306 154.508 177.208 157.271 177.208H342.875C345.638 177.208 348.288 178.306 350.241 180.259C352.195 182.213 353.292 184.862 353.292 187.625C353.292 190.388 352.195 193.037 350.241 194.991C348.288 196.944 345.638 198.042 342.875 198.042H157.271ZM157.271 260.542C154.508 260.542 151.859 259.444 149.905 257.491C147.952 255.537 146.854 252.888 146.854 250.125C146.854 247.362 147.952 244.713 149.905 242.759C151.859 240.806 154.508 239.708 157.271 239.708H292.688C295.451 239.708 298.1 240.806 300.054 242.759C302.007 244.713 303.104 247.362 303.104 250.125C303.104 252.888 302.007 255.537 300.054 257.491C298.1 259.444 295.451 260.542 292.688 260.542H157.271ZM157.625 382.792C154.863 382.792 152.213 381.694 150.26 379.741C148.306 377.787 147.209 375.138 147.209 372.375C147.209 369.612 148.306 366.963 150.26 365.009C152.213 363.056 154.863 361.958 157.625 361.958H225.355C228.117 361.958 230.767 363.056 232.72 365.009C234.674 366.963 235.771 369.612 235.771 372.375C235.771 375.138 234.674 377.787 232.72 379.741C230.767 381.694 228.117 382.792 225.355 382.792H157.625Z" fill="black"/>
</svg>
