<svg width="143" height="179" viewBox="0 0 143 179" fill="none" xmlns="http://www.w3.org/2000/svg">
<g clip-path="url(#clip0_2_29)">
<path d="M120.233 0.499023H22.7664C16.832 0.515578 11.1452 2.88041 6.94861 7.07686C2.75215 11.2733 0.387283 16.9602 0.370728 22.8948V156.105C0.387283 162.04 2.75215 167.727 6.94861 171.923C11.1452 176.12 16.832 178.485 22.7664 178.501H120.233C126.173 178.501 131.869 176.142 136.07 171.941C140.27 167.742 142.629 162.045 142.629 156.105V22.8948C142.629 16.9551 140.27 11.2586 136.07 7.05859C131.869 2.85856 126.173 0.499023 120.233 0.499023ZM133.671 156.105C133.671 159.669 132.255 163.087 129.735 165.607C127.215 168.127 123.797 169.543 120.233 169.543H22.7664C19.2026 169.543 15.7849 168.127 13.2647 165.607C10.7449 163.087 9.32892 159.669 9.32892 156.105V40.2741H133.671V156.105Z" fill="#231942"/>
<path d="M31.6265 67.1581C30.4384 67.1581 29.2994 66.6859 28.4591 65.8462C27.6194 65.0059 27.1472 63.8669 27.1472 62.6788C27.1472 61.4907 27.6194 60.3516 28.4591 59.5114C29.2994 58.6716 30.4384 58.1995 31.6265 58.1995H111.436C112.624 58.1995 113.764 58.6716 114.604 59.5114C115.444 60.3516 115.916 61.4907 115.916 62.6788C115.916 63.8669 115.444 65.0059 114.604 65.8462C113.764 66.6859 112.624 67.1581 111.436 67.1581H31.6265ZM31.6265 94.0331C30.4384 94.0331 29.2994 93.5609 28.4591 92.7212C27.6194 91.8809 27.1472 90.7419 27.1472 89.5538C27.1472 88.3657 27.6194 87.2266 28.4591 86.3864C29.2994 85.5466 30.4384 85.0745 31.6265 85.0745H89.8558C91.0439 85.0745 92.183 85.5466 93.0232 86.3864C93.863 87.2266 94.3347 88.3657 94.3347 89.5538C94.3347 90.7419 93.863 91.8809 93.0232 92.7212C92.183 93.5609 91.0439 94.0331 89.8558 94.0331H31.6265Z" fill="#F6D860"/>
<path d="M68.421 109.063C68.8707 108.614 69.4803 108.362 70.116 108.362C70.7516 108.362 71.3612 108.614 71.811 109.063L77.4077 114.66C77.8569 115.11 78.1092 115.719 78.1092 116.355C78.1092 116.991 77.8569 117.6 77.4077 118.05L71.811 123.647C71.3563 124.07 70.7549 124.301 70.1335 124.29C69.5121 124.279 68.9192 124.027 68.4797 123.588C68.0403 123.148 67.7885 122.555 67.7776 121.934C67.7666 121.313 67.9973 120.711 68.421 120.257L69.7962 118.881C67.0268 119.254 64.4258 120.424 62.3104 122.25C60.1951 124.075 58.657 126.477 57.8838 129.162C57.1106 131.848 57.1358 134.7 57.9563 137.371C58.7768 140.042 60.3572 142.416 62.5044 144.204C62.993 144.612 63.2996 145.197 63.3569 145.83C63.4142 146.464 63.2174 147.094 62.8099 147.583C62.4023 148.072 61.8174 148.378 61.1837 148.435C60.55 148.493 59.9196 148.296 59.431 147.888C56.5134 145.458 54.3825 142.216 53.3081 138.574C52.2337 134.932 52.2641 131.053 53.3954 127.428C54.5268 123.803 56.7083 120.595 59.6637 118.211C62.619 115.826 66.2155 114.372 69.9976 114.033L68.421 112.453C67.9718 112.003 67.7195 111.394 67.7195 110.758C67.7195 110.123 67.9718 109.513 68.421 109.063ZM80.6218 118.709C81.0291 118.22 81.6136 117.914 82.2469 117.856C82.8802 117.798 83.5104 117.995 83.999 118.402C86.9167 120.832 89.0476 124.074 90.122 127.716C91.1964 131.358 91.166 135.237 90.0346 138.862C88.9033 142.487 86.7218 145.695 83.7664 148.079C80.811 150.464 77.2146 151.918 73.4324 152.257L75.0091 153.837C75.2448 154.057 75.4338 154.321 75.5649 154.616C75.696 154.91 75.7665 155.227 75.7722 155.549C75.7778 155.872 75.7186 156.191 75.598 156.49C75.4773 156.789 75.2978 157.06 75.07 157.288C74.8422 157.516 74.5709 157.695 74.2723 157.816C73.9736 157.936 73.6537 157.996 73.3316 157.99C73.0096 157.984 72.6919 157.914 72.3977 157.783C72.1035 157.652 71.8387 157.463 71.6191 157.227L66.0224 151.63C65.5732 151.18 65.3209 150.571 65.3209 149.935C65.3209 149.3 65.5732 148.69 66.0224 148.24L71.6191 142.643C72.0738 142.22 72.6752 141.989 73.2966 142C73.918 142.011 74.5109 142.263 74.9503 142.702C75.3898 143.142 75.6415 143.735 75.6525 144.356C75.6635 144.977 75.4328 145.579 75.0091 146.033L73.6339 147.409C76.4032 147.036 79.0043 145.866 81.1196 144.04C83.235 142.215 84.7731 139.813 85.5463 137.128C86.3195 134.443 86.2943 131.59 85.4738 128.919C84.6532 126.248 83.0729 123.874 80.9256 122.086C80.4377 121.678 80.1316 121.093 80.0747 120.46C80.0177 119.827 80.2145 119.197 80.6218 118.709Z" fill="#231942"/>
</g>
<defs>
<clipPath id="clip0_2_29">
<rect width="143" height="179" fill="white"/>
</clipPath>
</defs>
</svg>
