<svg width="194" height="151" viewBox="0 0 194 151" fill="none" xmlns="http://www.w3.org/2000/svg">
<path d="M22.16 62.88C17.84 62.88 14 61.9467 10.64 60.08C7.33333 58.16 4.72 55.52 2.8 52.16C0.933333 48.8 0 44.96 0 40.64C0 36.2667 0.88 32.4267 2.64 29.12C4.45333 25.76 6.93333 23.12 10.08 21.2C13.2267 19.28 16.8533 18.32 20.96 18.32C25.0133 18.32 28.5333 19.2533 31.52 21.12C34.56 22.9333 36.9067 25.4667 38.56 28.72C40.2133 31.9733 41.04 35.68 41.04 39.84C41.04 40.6933 40.7733 41.3867 40.24 41.92C39.7067 42.4 39.0133 42.64 38.16 42.64H4.16V37.52H38.8L35.36 40C35.4133 36.9067 34.8533 34.1333 33.68 31.68C32.5067 29.2267 30.8267 27.3067 28.64 25.92C26.5067 24.5333 23.9467 23.84 20.96 23.84C17.92 23.84 15.2533 24.56 12.96 26C10.6667 27.44 8.88 29.44 7.6 32C6.37333 34.5067 5.76 37.3867 5.76 40.64C5.76 43.8933 6.45333 46.7733 7.84 49.28C9.28 51.7867 11.2267 53.76 13.68 55.2C16.1333 56.64 18.96 57.36 22.16 57.36C24.08 57.36 26 57.04 27.92 56.4C29.8933 55.7067 31.4667 54.8533 32.64 53.84C33.2267 53.36 33.8933 53.12 34.64 53.12C35.3867 53.0667 36.0267 53.2533 36.56 53.68C37.2533 54.32 37.6 55.0133 37.6 55.76C37.6533 56.5067 37.36 57.1467 36.72 57.68C34.96 59.1733 32.72 60.4267 30 61.44C27.28 62.4 24.6667 62.88 22.16 62.88Z" fill="#231942"/>
<path d="M69.4181 62.88C65.2048 62.88 61.4448 61.92 58.1381 60C54.8848 58.0267 52.2981 55.36 50.3781 52C48.5115 48.64 47.5781 44.8533 47.5781 40.64C47.5781 36.3733 48.4848 32.56 50.2981 29.2C52.1115 25.84 54.5915 23.2 57.7381 21.28C60.8848 19.3067 64.5115 18.32 68.6181 18.32C71.8715 18.32 74.8581 18.96 77.5781 20.24C80.3515 21.52 82.7781 23.44 84.8581 26C85.4448 26.64 85.6581 27.3333 85.4981 28.08C85.3381 28.7733 84.8848 29.3867 84.1381 29.92C83.5515 30.3467 82.8848 30.5067 82.1381 30.4C81.4448 30.24 80.8315 29.84 80.2981 29.2C77.2048 25.68 73.3115 23.92 68.6181 23.92C65.6315 23.92 62.9915 24.64 60.6981 26.08C58.4581 27.52 56.6981 29.4933 55.4181 32C54.1915 34.5067 53.5781 37.3867 53.5781 40.64C53.5781 43.84 54.2448 46.6933 55.5781 49.2C56.9115 51.7067 58.7781 53.68 61.1781 55.12C63.5781 56.56 66.3248 57.28 69.4181 57.28C71.4981 57.28 73.3915 57.0133 75.0981 56.48C76.8581 55.8933 78.4048 55.0133 79.7381 53.84C80.3781 53.3067 81.0448 53.0133 81.7381 52.96C82.4315 52.9067 83.0715 53.12 83.6581 53.6C84.2981 54.1867 84.6448 54.8533 84.6981 55.6C84.8048 56.3467 84.5648 56.9867 83.9781 57.52C80.0848 61.0933 75.2315 62.88 69.4181 62.88Z" fill="#231942"/>
<path d="M100.596 44.64C99.6363 44.64 98.8629 44.3467 98.2763 43.76C97.7429 43.1733 97.4762 42.4267 97.4762 41.52V3.12C97.4762 2.16 97.7429 1.41333 98.2763 0.879998C98.8629 0.293333 99.6363 0 100.596 0C101.503 0 102.223 0.293333 102.756 0.879998C103.343 1.41333 103.636 2.16 103.636 3.12V41.52C103.636 42.4267 103.343 43.1733 102.756 43.76C102.223 44.3467 101.503 44.64 100.596 44.64ZM134.996 62.48C134.09 62.48 133.343 62.1867 132.756 61.6C132.17 61.0133 131.876 60.2933 131.876 59.44V38.64C131.876 35.3333 131.236 32.6133 129.956 30.48C128.73 28.3467 127.023 26.7467 124.836 25.68C122.703 24.6133 120.276 24.08 117.556 24.08C114.943 24.08 112.57 24.5867 110.436 25.6C108.356 26.6133 106.703 28 105.476 29.76C104.25 31.52 103.636 33.52 103.636 35.76H99.2363C99.3429 32.4 100.25 29.4133 101.956 26.8C103.663 24.1333 105.93 22.0533 108.756 20.56C111.583 19.0133 114.73 18.24 118.196 18.24C121.983 18.24 125.37 19.04 128.356 20.64C131.343 22.1867 133.69 24.48 135.396 27.52C137.156 30.56 138.036 34.2667 138.036 38.64V59.44C138.036 60.2933 137.743 61.0133 137.156 61.6C136.57 62.1867 135.85 62.48 134.996 62.48ZM100.596 62.48C99.6363 62.48 98.8629 62.2133 98.2763 61.68C97.7429 61.0933 97.4762 60.3467 97.4762 59.44V21.84C97.4762 20.88 97.7429 20.1333 98.2763 19.6C98.8629 19.0133 99.6363 18.72 100.596 18.72C101.503 18.72 102.223 19.0133 102.756 19.6C103.343 20.1333 103.636 20.88 103.636 21.84V59.44C103.636 60.3467 103.343 61.0933 102.756 61.68C102.223 62.2133 101.503 62.48 100.596 62.48Z" fill="#231942"/>
<path d="M171.537 62.88C167.27 62.88 163.457 61.92 160.097 60C156.737 58.08 154.097 55.44 152.177 52.08C150.257 48.72 149.297 44.9067 149.297 40.64C149.297 36.32 150.257 32.48 152.177 29.12C154.097 25.76 156.737 23.12 160.097 21.2C163.457 19.28 167.27 18.32 171.537 18.32C175.804 18.32 179.59 19.28 182.897 21.2C186.257 23.12 188.897 25.76 190.817 29.12C192.737 32.48 193.724 36.32 193.777 40.64C193.777 44.9067 192.79 48.72 190.817 52.08C188.897 55.44 186.257 58.08 182.897 60C179.59 61.92 175.804 62.88 171.537 62.88ZM171.537 57.28C174.63 57.28 177.404 56.56 179.857 55.12C182.31 53.68 184.23 51.7067 185.617 49.2C187.004 46.6933 187.697 43.84 187.697 40.64C187.697 37.44 187.004 34.5867 185.617 32.08C184.23 29.52 182.31 27.52 179.857 26.08C177.404 24.64 174.63 23.92 171.537 23.92C168.444 23.92 165.67 24.64 163.217 26.08C160.764 27.52 158.817 29.52 157.377 32.08C155.99 34.5867 155.297 37.44 155.297 40.64C155.297 43.84 155.99 46.6933 157.377 49.2C158.817 51.7067 160.764 53.68 163.217 55.12C165.67 56.56 168.444 57.28 171.537 57.28Z" fill="#231942"/>
<path d="M6.44 150.2C5.48 150.2 4.70667 149.907 4.12 149.32C3.58667 148.787 3.32 148.04 3.32 147.08V109.32C3.37333 105.16 4.36 101.427 6.28 98.12C8.25333 94.76 10.8933 92.12 14.2 90.2C17.56 88.28 21.32 87.32 25.48 87.32C29.7467 87.32 33.56 88.3067 36.92 90.28C40.28 92.2 42.92 94.84 44.84 98.2C46.8133 101.56 47.8 105.373 47.8 109.64C47.8 113.853 46.84 117.64 44.92 121C43.0533 124.36 40.4933 127.027 37.24 129C33.9867 130.92 30.3067 131.88 26.2 131.88C22.6267 131.88 19.3733 131.133 16.44 129.64C13.56 128.093 11.24 126.067 9.48 123.56V147.08C9.48 148.04 9.18667 148.787 8.6 149.32C8.06667 149.907 7.34667 150.2 6.44 150.2ZM25.48 126.28C28.5733 126.28 31.3467 125.56 33.8 124.12C36.2533 122.68 38.1733 120.707 39.56 118.2C41 115.64 41.72 112.787 41.72 109.64C41.72 106.44 41 103.587 39.56 101.08C38.1733 98.5733 36.2533 96.6 33.8 95.16C31.3467 93.6667 28.5733 92.92 25.48 92.92C22.44 92.92 19.6933 93.6667 17.24 95.16C14.7867 96.6 12.8667 98.5733 11.48 101.08C10.0933 103.587 9.4 106.44 9.4 109.64C9.4 112.787 10.0933 115.64 11.48 118.2C12.8667 120.707 14.7867 122.68 17.24 124.12C19.6933 125.56 22.44 126.28 25.48 126.28Z" fill="#231942"/>
<path d="M79.1625 131.88C75.0558 131.88 71.3758 130.92 68.1225 129C64.8692 127.027 62.2825 124.36 60.3625 121C58.4958 117.64 57.5625 113.853 57.5625 109.64C57.5625 105.373 58.5225 101.56 60.4425 98.2C62.4158 94.84 65.0825 92.2 68.4425 90.28C71.8025 88.3067 75.5892 87.32 79.8025 87.32C84.0158 87.32 87.7758 88.3067 91.0825 90.28C94.4425 92.2 97.0825 94.84 99.0025 98.2C100.976 101.56 101.989 105.373 102.043 109.64L99.5625 111.56C99.5625 115.4 98.6558 118.867 96.8425 121.96C95.0825 125 92.6558 127.427 89.5625 129.24C86.5225 131 83.0558 131.88 79.1625 131.88ZM79.8025 126.28C82.8958 126.28 85.6425 125.56 88.0425 124.12C90.4958 122.68 92.4158 120.707 93.8025 118.2C95.2425 115.64 95.9625 112.787 95.9625 109.64C95.9625 106.44 95.2425 103.587 93.8025 101.08C92.4158 98.5733 90.4958 96.6 88.0425 95.16C85.6425 93.6667 82.8958 92.92 79.8025 92.92C76.7625 92.92 74.0158 93.6667 71.5625 95.16C69.1092 96.6 67.1625 98.5733 65.7225 101.08C64.2825 103.587 63.5625 106.44 63.5625 109.64C63.5625 112.787 64.2825 115.64 65.7225 118.2C67.1625 120.707 69.1092 122.68 71.5625 124.12C74.0158 125.56 76.7625 126.28 79.8025 126.28ZM98.9225 131.48C98.0158 131.48 97.2692 131.213 96.6825 130.68C96.0958 130.093 95.8025 129.347 95.8025 128.44V114.76L97.3225 108.44L102.043 109.64V128.44C102.043 129.347 101.749 130.093 101.162 130.68C100.576 131.213 99.8292 131.48 98.9225 131.48Z" fill="#231942"/>
<path d="M133.943 131.88C129.73 131.88 125.943 130.92 122.583 129C119.223 127.027 116.556 124.36 114.583 121C112.663 117.64 111.703 113.827 111.703 109.56C111.703 105.347 112.636 101.56 114.503 98.2C116.423 94.84 119.01 92.2 122.263 90.28C125.516 88.3067 129.196 87.32 133.303 87.32C136.876 87.32 140.103 88.0933 142.983 89.64C145.863 91.1333 148.183 93.1333 149.943 95.64V72.12C149.943 71.16 150.236 70.4133 150.823 69.88C151.41 69.2933 152.156 69 153.063 69C153.97 69 154.716 69.2933 155.303 69.88C155.89 70.4133 156.183 71.16 156.183 72.12V109.88C156.076 114.04 155.036 117.8 153.063 121.16C151.143 124.467 148.503 127.08 145.143 129C141.836 130.92 138.103 131.88 133.943 131.88ZM133.943 126.28C137.036 126.28 139.783 125.56 142.183 124.12C144.636 122.627 146.556 120.627 147.943 118.12C149.383 115.613 150.103 112.76 150.103 109.56C150.103 106.413 149.383 103.587 147.943 101.08C146.556 98.52 144.636 96.52 142.183 95.08C139.783 93.64 137.036 92.92 133.943 92.92C130.903 92.92 128.156 93.64 125.703 95.08C123.25 96.52 121.303 98.52 119.863 101.08C118.423 103.587 117.703 106.413 117.703 109.56C117.703 112.76 118.423 115.613 119.863 118.12C121.303 120.627 123.25 122.627 125.703 124.12C128.156 125.56 130.903 126.28 133.943 126.28Z" fill="#231942"/>
</svg>
