<svg width="368" height="179" viewBox="0 0 368 179" fill="none" xmlns="http://www.w3.org/2000/svg">
<g clip-path="url(#clip0_2_22)">
<path d="M120.233 0.499023H22.7664C16.832 0.515578 11.1452 2.88041 6.94861 7.07686C2.75215 11.2733 0.387283 16.9602 0.370728 22.8948V156.105C0.387283 162.04 2.75215 167.727 6.94861 171.923C11.1452 176.12 16.832 178.485 22.7664 178.501H120.233C126.173 178.501 131.869 176.142 136.07 171.941C140.27 167.742 142.629 162.045 142.629 156.105V22.8948C142.629 16.9551 140.27 11.2586 136.07 7.05859C131.869 2.85856 126.173 0.499023 120.233 0.499023ZM133.671 156.105C133.671 159.669 132.255 163.087 129.735 165.607C127.215 168.127 123.797 169.543 120.233 169.543H22.7664C19.2026 169.543 15.7849 168.127 13.2647 165.607C10.7449 163.087 9.32892 159.669 9.32892 156.105V40.2741H133.671V156.105Z" fill="#231942"/>
<path d="M31.6265 67.1581C30.4384 67.1581 29.2994 66.6859 28.4591 65.8462C27.6194 65.0059 27.1472 63.8669 27.1472 62.6788C27.1472 61.4907 27.6194 60.3516 28.4591 59.5114C29.2994 58.6716 30.4384 58.1995 31.6265 58.1995H111.436C112.624 58.1995 113.764 58.6716 114.604 59.5114C115.444 60.3516 115.916 61.4907 115.916 62.6788C115.916 63.8669 115.444 65.0059 114.604 65.8462C113.764 66.6859 112.624 67.1581 111.436 67.1581H31.6265ZM31.6265 94.0331C30.4384 94.0331 29.2994 93.5609 28.4591 92.7212C27.6194 91.8809 27.1472 90.7419 27.1472 89.5538C27.1472 88.3657 27.6194 87.2266 28.4591 86.3864C29.2994 85.5466 30.4384 85.0745 31.6265 85.0745H89.8558C91.0439 85.0745 92.183 85.5466 93.0232 86.3864C93.863 87.2266 94.3347 88.3657 94.3347 89.5538C94.3347 90.7419 93.863 91.8809 93.0232 92.7212C92.183 93.5609 91.0439 94.0331 89.8558 94.0331H31.6265Z" fill="#F6D860"/>
<path d="M68.421 109.063C68.8707 108.614 69.4803 108.362 70.116 108.362C70.7516 108.362 71.3612 108.614 71.811 109.063L77.4077 114.66C77.8569 115.11 78.1092 115.719 78.1092 116.355C78.1092 116.991 77.8569 117.6 77.4077 118.05L71.811 123.647C71.3563 124.07 70.7549 124.301 70.1335 124.29C69.5121 124.279 68.9192 124.027 68.4797 123.588C68.0403 123.148 67.7885 122.555 67.7776 121.934C67.7666 121.313 67.9973 120.711 68.421 120.257L69.7962 118.881C67.0268 119.254 64.4258 120.424 62.3104 122.25C60.1951 124.075 58.657 126.477 57.8838 129.162C57.1106 131.848 57.1358 134.7 57.9563 137.371C58.7768 140.042 60.3572 142.416 62.5044 144.204C62.993 144.612 63.2996 145.197 63.3569 145.83C63.4142 146.464 63.2174 147.094 62.8099 147.583C62.4023 148.072 61.8174 148.378 61.1837 148.435C60.55 148.493 59.9196 148.296 59.431 147.888C56.5134 145.458 54.3825 142.216 53.3081 138.574C52.2337 134.932 52.2641 131.053 53.3954 127.428C54.5268 123.803 56.7083 120.595 59.6637 118.211C62.619 115.826 66.2155 114.372 69.9976 114.033L68.421 112.453C67.9718 112.003 67.7195 111.394 67.7195 110.758C67.7195 110.123 67.9718 109.513 68.421 109.063ZM80.6218 118.709C81.0291 118.22 81.6136 117.914 82.2469 117.856C82.8802 117.798 83.5104 117.995 83.999 118.402C86.9167 120.832 89.0476 124.074 90.122 127.716C91.1964 131.358 91.166 135.237 90.0346 138.862C88.9033 142.487 86.7218 145.695 83.7664 148.079C80.811 150.464 77.2146 151.918 73.4324 152.257L75.0091 153.837C75.2448 154.057 75.4338 154.321 75.5649 154.616C75.696 154.91 75.7665 155.227 75.7722 155.549C75.7778 155.872 75.7186 156.191 75.598 156.49C75.4773 156.789 75.2978 157.06 75.07 157.288C74.8422 157.516 74.5709 157.695 74.2723 157.816C73.9736 157.936 73.6537 157.996 73.3316 157.99C73.0096 157.984 72.6919 157.914 72.3977 157.783C72.1035 157.652 71.8387 157.463 71.6191 157.227L66.0224 151.63C65.5732 151.18 65.3209 150.571 65.3209 149.935C65.3209 149.3 65.5732 148.69 66.0224 148.24L71.6191 142.643C72.0738 142.22 72.6752 141.989 73.2966 142C73.918 142.011 74.5109 142.263 74.9503 142.702C75.3898 143.142 75.6415 143.735 75.6525 144.356C75.6635 144.977 75.4328 145.579 75.0091 146.033L73.6339 147.409C76.4032 147.036 79.0043 145.866 81.1196 144.04C83.235 142.215 84.7731 139.813 85.5463 137.128C86.3195 134.443 86.2943 131.59 85.4738 128.919C84.6532 126.248 83.0729 123.874 80.9256 122.086C80.4377 121.678 80.1316 121.093 80.0747 120.46C80.0177 119.827 80.2145 119.197 80.6218 118.709Z" fill="#231942"/>
</g>
<path d="M196.04 78.4C191.72 78.4 187.88 77.4667 184.52 75.6C181.213 73.68 178.6 71.04 176.68 67.68C174.813 64.32 173.88 60.48 173.88 56.16C173.88 51.7867 174.76 47.9467 176.52 44.64C178.333 41.28 180.813 38.64 183.96 36.72C187.107 34.8 190.733 33.84 194.84 33.84C198.893 33.84 202.413 34.7734 205.4 36.64C208.44 38.4534 210.787 40.9867 212.44 44.24C214.093 47.4934 214.92 51.2 214.92 55.36C214.92 56.2134 214.653 56.9067 214.12 57.44C213.587 57.92 212.893 58.16 212.04 58.16H178.04V53.04H212.68L209.24 55.52C209.293 52.4267 208.733 49.6534 207.56 47.2C206.387 44.7467 204.707 42.8267 202.52 41.44C200.387 40.0534 197.827 39.36 194.84 39.36C191.8 39.36 189.133 40.08 186.84 41.52C184.547 42.96 182.76 44.96 181.48 47.52C180.253 50.0267 179.64 52.9067 179.64 56.16C179.64 59.4134 180.333 62.2934 181.72 64.8C183.16 67.3067 185.107 69.28 187.56 70.72C190.013 72.16 192.84 72.88 196.04 72.88C197.96 72.88 199.88 72.56 201.8 71.92C203.773 71.2267 205.347 70.3734 206.52 69.36C207.107 68.88 207.773 68.64 208.52 68.64C209.267 68.5867 209.907 68.7734 210.44 69.2C211.133 69.84 211.48 70.5334 211.48 71.28C211.533 72.0267 211.24 72.6667 210.6 73.2C208.84 74.6934 206.6 75.9467 203.88 76.96C201.16 77.92 198.547 78.4 196.04 78.4Z" fill="#231942"/>
<path d="M243.298 78.4C239.085 78.4 235.325 77.44 232.018 75.52C228.765 73.5467 226.178 70.88 224.258 67.52C222.391 64.16 221.458 60.3734 221.458 56.16C221.458 51.8934 222.365 48.08 224.178 44.72C225.991 41.36 228.471 38.72 231.618 36.8C234.765 34.8267 238.391 33.84 242.498 33.84C245.751 33.84 248.738 34.48 251.458 35.76C254.231 37.04 256.658 38.96 258.738 41.52C259.325 42.16 259.538 42.8534 259.378 43.6C259.218 44.2934 258.765 44.9067 258.018 45.44C257.431 45.8667 256.765 46.0267 256.018 45.92C255.325 45.76 254.711 45.36 254.178 44.72C251.085 41.2 247.191 39.44 242.498 39.44C239.511 39.44 236.871 40.16 234.578 41.6C232.338 43.04 230.578 45.0134 229.298 47.52C228.071 50.0267 227.458 52.9067 227.458 56.16C227.458 59.36 228.125 62.2134 229.458 64.72C230.791 67.2267 232.658 69.2 235.058 70.64C237.458 72.08 240.205 72.8 243.298 72.8C245.378 72.8 247.271 72.5334 248.978 72C250.738 71.4134 252.285 70.5334 253.618 69.36C254.258 68.8267 254.925 68.5334 255.618 68.48C256.311 68.4267 256.951 68.64 257.538 69.12C258.178 69.7067 258.525 70.3734 258.578 71.12C258.685 71.8667 258.445 72.5067 257.858 73.04C253.965 76.6134 249.111 78.4 243.298 78.4Z" fill="#231942"/>
<path d="M274.476 60.16C273.516 60.16 272.743 59.8667 272.156 59.28C271.623 58.6934 271.356 57.9467 271.356 57.04V18.64C271.356 17.68 271.623 16.9334 272.156 16.4C272.743 15.8134 273.516 15.52 274.476 15.52C275.383 15.52 276.103 15.8134 276.636 16.4C277.223 16.9334 277.516 17.68 277.516 18.64V57.04C277.516 57.9467 277.223 58.6934 276.636 59.28C276.103 59.8667 275.383 60.16 274.476 60.16ZM308.876 78C307.97 78 307.223 77.7067 306.636 77.12C306.05 76.5334 305.756 75.8134 305.756 74.96V54.16C305.756 50.8534 305.116 48.1334 303.836 46C302.61 43.8667 300.903 42.2667 298.716 41.2C296.583 40.1334 294.156 39.6 291.436 39.6C288.823 39.6 286.45 40.1067 284.316 41.12C282.236 42.1334 280.583 43.52 279.356 45.28C278.13 47.04 277.516 49.04 277.516 51.28H273.116C273.223 47.92 274.13 44.9334 275.836 42.32C277.543 39.6534 279.81 37.5734 282.636 36.08C285.463 34.5334 288.61 33.76 292.076 33.76C295.863 33.76 299.25 34.56 302.236 36.16C305.223 37.7067 307.57 40 309.276 43.04C311.036 46.08 311.916 49.7867 311.916 54.16V74.96C311.916 75.8134 311.623 76.5334 311.036 77.12C310.45 77.7067 309.73 78 308.876 78ZM274.476 78C273.516 78 272.743 77.7334 272.156 77.2C271.623 76.6134 271.356 75.8667 271.356 74.96V37.36C271.356 36.4 271.623 35.6534 272.156 35.12C272.743 34.5334 273.516 34.24 274.476 34.24C275.383 34.24 276.103 34.5334 276.636 35.12C277.223 35.6534 277.516 36.4 277.516 37.36V74.96C277.516 75.8667 277.223 76.6134 276.636 77.2C276.103 77.7334 275.383 78 274.476 78Z" fill="#231942"/>
<path d="M345.417 78.4C341.15 78.4 337.337 77.44 333.977 75.52C330.617 73.6 327.977 70.96 326.057 67.6C324.137 64.24 323.177 60.4267 323.177 56.16C323.177 51.84 324.137 48 326.057 44.64C327.977 41.28 330.617 38.64 333.977 36.72C337.337 34.8 341.15 33.84 345.417 33.84C349.684 33.84 353.47 34.8 356.777 36.72C360.137 38.64 362.777 41.28 364.697 44.64C366.617 48 367.604 51.84 367.657 56.16C367.657 60.4267 366.67 64.24 364.697 67.6C362.777 70.96 360.137 73.6 356.777 75.52C353.47 77.44 349.684 78.4 345.417 78.4ZM345.417 72.8C348.51 72.8 351.284 72.08 353.737 70.64C356.19 69.2 358.11 67.2267 359.497 64.72C360.884 62.2134 361.577 59.36 361.577 56.16C361.577 52.96 360.884 50.1067 359.497 47.6C358.11 45.04 356.19 43.04 353.737 41.6C351.284 40.16 348.51 39.44 345.417 39.44C342.324 39.44 339.55 40.16 337.097 41.6C334.644 43.04 332.697 45.04 331.257 47.6C329.87 50.1067 329.177 52.96 329.177 56.16C329.177 59.36 329.87 62.2134 331.257 64.72C332.697 67.2267 334.644 69.2 337.097 70.64C339.55 72.08 342.324 72.8 345.417 72.8Z" fill="#231942"/>
<path d="M180.32 165.72C179.36 165.72 178.587 165.427 178 164.84C177.467 164.307 177.2 163.56 177.2 162.6V124.84C177.253 120.68 178.24 116.947 180.16 113.64C182.133 110.28 184.773 107.64 188.08 105.72C191.44 103.8 195.2 102.84 199.36 102.84C203.627 102.84 207.44 103.827 210.8 105.8C214.16 107.72 216.8 110.36 218.72 113.72C220.693 117.08 221.68 120.893 221.68 125.16C221.68 129.373 220.72 133.16 218.8 136.52C216.933 139.88 214.373 142.547 211.12 144.52C207.867 146.44 204.187 147.4 200.08 147.4C196.507 147.4 193.253 146.653 190.32 145.16C187.44 143.613 185.12 141.587 183.36 139.08V162.6C183.36 163.56 183.067 164.307 182.48 164.84C181.947 165.427 181.227 165.72 180.32 165.72ZM199.36 141.8C202.453 141.8 205.227 141.08 207.68 139.64C210.133 138.2 212.053 136.227 213.44 133.72C214.88 131.16 215.6 128.307 215.6 125.16C215.6 121.96 214.88 119.107 213.44 116.6C212.053 114.093 210.133 112.12 207.68 110.68C205.227 109.187 202.453 108.44 199.36 108.44C196.32 108.44 193.573 109.187 191.12 110.68C188.667 112.12 186.747 114.093 185.36 116.6C183.973 119.107 183.28 121.96 183.28 125.16C183.28 128.307 183.973 131.16 185.36 133.72C186.747 136.227 188.667 138.2 191.12 139.64C193.573 141.08 196.32 141.8 199.36 141.8Z" fill="#231942"/>
<path d="M253.043 147.4C248.936 147.4 245.256 146.44 242.003 144.52C238.749 142.547 236.163 139.88 234.243 136.52C232.376 133.16 231.443 129.373 231.443 125.16C231.443 120.893 232.403 117.08 234.323 113.72C236.296 110.36 238.963 107.72 242.323 105.8C245.683 103.827 249.469 102.84 253.683 102.84C257.896 102.84 261.656 103.827 264.963 105.8C268.323 107.72 270.963 110.36 272.883 113.72C274.856 117.08 275.869 120.893 275.923 125.16L273.443 127.08C273.443 130.92 272.536 134.387 270.723 137.48C268.963 140.52 266.536 142.947 263.443 144.76C260.403 146.52 256.936 147.4 253.043 147.4ZM253.683 141.8C256.776 141.8 259.523 141.08 261.923 139.64C264.376 138.2 266.296 136.227 267.683 133.72C269.123 131.16 269.843 128.307 269.843 125.16C269.843 121.96 269.123 119.107 267.683 116.6C266.296 114.093 264.376 112.12 261.923 110.68C259.523 109.187 256.776 108.44 253.683 108.44C250.643 108.44 247.896 109.187 245.443 110.68C242.989 112.12 241.043 114.093 239.603 116.6C238.163 119.107 237.443 121.96 237.443 125.16C237.443 128.307 238.163 131.16 239.603 133.72C241.043 136.227 242.989 138.2 245.443 139.64C247.896 141.08 250.643 141.8 253.683 141.8ZM272.803 147C271.896 147 271.149 146.733 270.563 146.2C269.976 145.613 269.683 144.867 269.683 143.96V130.28L271.203 123.96L275.923 125.16V143.96C275.923 144.867 275.629 145.613 275.043 146.2C274.456 146.733 273.709 147 272.803 147Z" fill="#231942"/>
<path d="M307.823 147.4C303.61 147.4 299.823 146.44 296.463 144.52C293.103 142.547 290.436 139.88 288.463 136.52C286.543 133.16 285.583 129.347 285.583 125.08C285.583 120.867 286.516 117.08 288.383 113.72C290.303 110.36 292.89 107.72 296.143 105.8C299.396 103.827 303.076 102.84 307.183 102.84C310.756 102.84 313.983 103.613 316.863 105.16C319.743 106.653 322.063 108.653 323.823 111.16V87.64C323.823 86.68 324.116 85.9333 324.703 85.4C325.29 84.8134 326.036 84.52 326.943 84.52C327.85 84.52 328.596 84.8134 329.183 85.4C329.77 85.9333 330.063 86.68 330.063 87.64V125.4C329.956 129.56 328.916 133.32 326.943 136.68C325.023 139.987 322.383 142.6 319.023 144.52C315.716 146.44 311.983 147.4 307.823 147.4ZM307.823 141.8C310.916 141.8 313.663 141.08 316.063 139.64C318.516 138.147 320.436 136.147 321.823 133.64C323.263 131.133 323.983 128.28 323.983 125.08C323.983 121.933 323.263 119.107 321.823 116.6C320.436 114.04 318.516 112.04 316.063 110.6C313.663 109.16 310.916 108.44 307.823 108.44C304.783 108.44 302.036 109.16 299.583 110.6C297.13 112.04 295.183 114.04 293.743 116.6C292.303 119.107 291.583 121.933 291.583 125.08C291.583 128.28 292.303 131.133 293.743 133.64C295.183 136.147 297.13 138.147 299.583 139.64C302.036 141.08 304.783 141.8 307.823 141.8Z" fill="#231942"/>
<defs>
<clipPath id="clip0_2_22">
<rect width="143" height="179" fill="white"/>
</clipPath>
</defs>
</svg>
